<?xml version="1.0" encoding="UTF-8" standalone="no"?>
<!-- Created with Inkscape (http://www.inkscape.org/) -->

<svg
   xmlns:dc="http://purl.org/dc/elements/1.1/"
   xmlns:cc="http://creativecommons.org/ns#"
   xmlns:rdf="http://www.w3.org/1999/02/22-rdf-syntax-ns#"
   xmlns:svg="http://www.w3.org/2000/svg"
   xmlns="http://www.w3.org/2000/svg"
   xmlns:sodipodi="http://sodipodi.sourceforge.net/DTD/sodipodi-0.dtd"
   xmlns:inkscape="http://www.inkscape.org/namespaces/inkscape"
   id="svg4701"
   version="1.1"
   inkscape:version="0.91 r13725"
   width="1251.25"
   height="1251.25"
   viewBox="0 0 1251.25 1251.25"
   sodipodi:docname="bird.svg"
   inkscape:export-filename="C:\Users\Ben\Documents\kivy\images\bird.png"
   inkscape:export-xdpi="95.440002"
   inkscape:export-ydpi="95.440002">
  <metadata
     id="metadata4707">
    <rdf:RDF>
      <cc:Work
         rdf:about="">
        <dc:format>image/svg+xml</dc:format>
        <dc:type
           rdf:resource="http://purl.org/dc/dcmitype/StillImage" />
        <dc:title />
      </cc:Work>
    </rdf:RDF>
  </metadata>
  <defs
     id="defs4705" />
  <sodipodi:namedview
     pagecolor="#ffffff"
     bordercolor="#666666"
     borderopacity="1"
     objecttolerance="10"
     gridtolerance="10"
     guidetolerance="10"
     inkscape:pageopacity="0"
     inkscape:pageshadow="2"
     inkscape:window-width="1366"
     inkscape:window-height="705"
     id="namedview4703"
     showgrid="false"
     inkscape:zoom="1.7118768"
     inkscape:cx="189.21761"
     inkscape:cy="859.74603"
     inkscape:window-x="-8"
     inkscape:window-y="-8"
     inkscape:window-maximized="1"
     inkscape:current-layer="svg4701" />
  <rect
     style="color:#000000;clip-rule:nonzero;display:inline;overflow:visible;visibility:visible;opacity:1;isolation:auto;mix-blend-mode:normal;color-interpolation:sRGB;color-interpolation-filters:linearRGB;solid-color:#000000;solid-opacity:1;fill:#000000;fill-opacity:1;fill-rule:nonzero;stroke:none;stroke-width:0.99999994;stroke-linecap:butt;stroke-linejoin:miter;stroke-miterlimit:4;stroke-dasharray:0.99999994, 7.99999952;stroke-dashoffset:0;stroke-opacity:1;color-rendering:auto;image-rendering:auto;shape-rendering:auto;text-rendering:auto;enable-background:accumulate"
     id="rect5253"
     width="1267.1556"
     height="1267.1556"
     x="-5.3019071"
     y="-10.603812" />
  <path
     style="fill:#999999"
     d="m 850.62354,1221.9996 c -9.55413,-6.0407 -28.33865,-40.5354 -33.56724,-61.6408 -2.62775,-10.6068 -3.90125,-13.7337 -3.90125,-9.5791 0,4.7615 -11.97079,39.1441 -17.47895,50.2035 -6.25052,12.5496 -13.85591,20.9891 -18.9145,20.9891 -8.0476,0 -16.54224,-13.8512 -21.69914,-35.3822 -3.35149,-13.9929 -7.99215,-27.8728 -9.68109,-28.9554 -0.56832,-0.3641 -2.04702,2.1636 -3.28599,5.6173 -4.24145,11.823 -12.42874,26.8285 -16.8197,30.8262 -5.27711,4.8048 -11.92066,5.3888 -15.77961,1.3869 -8.02413,-8.3207 -14.7331,-32.4082 -16.79289,-60.2922 -2.53702,-34.3445 2.45713,-111.7789 12.27557,-190.33262 1.75632,-14.05173 3.19331,-25.84663 3.19331,-26.21105 0,-1.13616 -32.15418,-17.3439 -42.24925,-21.29617 -8.31901,-3.25695 -10.94264,-5.16541 -19.63403,-14.2811 l -10.03192,-10.52173 -3.41102,3.38708 c -13.04263,12.95164 -37.30219,12.27293 -64.22433,-1.7966 -21.07388,-11.01339 -50.37954,-33.4585 -68.29655,-52.30817 -13.89146,-14.61461 -33.98293,-42.02641 -39.99405,-54.56589 -3.56447,-7.43569 -5.35072,-14.26857 -8.87268,-33.9404 -4.62944,-25.8577 -5.66931,-29.67483 -11.92961,-43.79099 -5.83144,-13.1492 -11.86135,-40.70531 -23.80402,-108.78219 -11.76435,-67.06045 -14.39839,-79.96664 -19.27386,-94.43719 -10.51787,-31.21763 -41.33375,-68.68374 -67.72808,-82.34423 -8.95302,-4.63366 -14.87693,-9.8773 -14.87693,-13.16848 0,-2.6616 -2.37306,1.46195 -23.04505,-0.66496 -20.39023,-2.0979 -121.10579,2.75471 -176.67868,4.98116 -50.64981,2.02919 -98.354338,3.42089 -98.116449,-8.6025 0.07904,-3.99498 6.385434,-4.8298 36.662983,-8.80331 59.619646,-7.82422 134.058156,-12.2436 215.727236,-12.80762 37.32017,-0.25773 70.09155,-0.80634 72.82528,-1.21914 7.71629,-1.16511 20.72479,-7.41829 44.55633,-21.41816 37.18867,-21.84652 56.6408,-29.25296 85.59932,-32.59204 24.25621,-2.79689 51.03203,1.64676 74.62481,12.38457 45.5704,20.74048 58.68713,44.54193 71.95947,130.57684 3.06027,19.83759 5.54521,32.52662 6.36978,32.52662 0.19429,0 9.48795,-6.61733 20.65257,-14.70516 52.33109,-37.90943 120.72903,-80.17149 157.28934,-97.1867 43.91471,-20.43797 99.14143,-31.01439 111.63951,-21.37997 5.90862,4.55481 5.3519,8.41637 -3.19313,22.14881 -4.18062,6.71855 -8.55735,14.15719 -9.72606,16.5303 -2.10892,4.28226 -2.10175,4.31475 0.9519,4.31475 1.69224,0 3.79359,0.89561 4.66966,1.99024 2.54745,3.18299 -0.69869,9.30856 -10.83396,20.444 -4.95517,5.4442 -8.05073,9.53254 -6.87902,9.08522 6.93924,-2.64917 125.79203,-28.56638 180.94973,-39.45818 85.7104,-16.92489 137.1428,-24.48635 160.6752,-23.62196 19.6948,0.72342 25.6256,3.94034 25.5936,13.88246 -0.028,8.77034 -15.6133,28.85659 -34.3191,44.23056 -4.8864,4.01605 -9.9197,9.26245 -11.1852,11.65869 -1.2656,2.39624 -5.2163,7.37991 -8.7795,11.07488 -7.3655,7.63787 -25.1444,17.20547 -36.6042,19.69822 -3.8727,0.84243 -8.3273,1.80484 -9.8988,2.13868 -1.5714,0.33385 -3.7407,2.37841 -4.8204,4.54348 -3.2661,6.54959 -17.1096,20.94533 -24.8008,25.79021 -7.9466,5.00583 -24.9133,11.39095 -30.2682,11.39095 -2.5467,0 -5.3881,2.21296 -11.2969,8.7983 -4.3419,4.83904 -11.0629,11.03189 -14.9357,13.76185 -7.7749,5.48041 -26.7256,15.56579 -36.1327,19.22937 -3.3766,1.31499 -6.3773,3.43723 -6.7965,4.80661 -0.4127,1.34859 -4.1124,5.99288 -8.2217,10.32061 -8.6991,9.16206 -24.34573,17.87571 -36.76947,20.4772 -7.3718,1.54364 -8.43139,2.25317 -15.77361,10.56217 -5.90923,6.68733 -10.26514,10.13437 -17.47715,13.83052 -8.98906,4.60693 -10.52652,4.95973 -23.9324,5.49183 l -14.32623,0.56863 -3.8235,6.60072 c -5.3487,9.23375 -14.59899,17.7803 -24.38313,22.52812 -7.11234,3.45133 -10.45051,4.17624 -22.85756,4.96362 -12.92053,0.81999 -15.49529,1.4154 -23.25867,5.37862 -5.78367,2.95257 -12.11573,7.85693 -18.76291,14.53242 l -10.03315,10.07586 10.78156,15.36838 c 5.92986,8.4526 18.96616,28.46644 28.96957,44.47518 21.95436,35.13423 37.30552,57.13315 49.35652,70.73023 10.79294,12.17762 12.67566,15.1279 16.6616,26.1091 5.63412,15.52186 8.37857,33.84373 9.61945,64.21911 1.59683,39.089 4.19638,53.0047 11.77524,63.03445 7.5254,9.95879 25.44282,61.12899 28.00638,79.98299 1.7392,12.7913 0.86141,18.9567 -3.45648,24.2779 l -3.18924,3.9303 6.97319,26.4153 c 8.39347,31.7953 10.07207,40.274 9.52564,48.1146 -0.36343,5.2144 -0.82342,6.0358 -3.61708,6.4576 -1.76039,0.2658 -7.10796,-0.914 -11.88347,-2.6217 -11.07453,-3.9604 -12.73617,-3.0668 -14.03043,7.5441 -4.21885,34.5879 -22.17939,39.9175 -48.32572,14.3406 -5.88742,-5.7594 -9.1496,-8.1372 -9.53288,-6.9491 -0.32048,0.9938 -1.52245,6.7629 -2.67108,12.8204 -3.97215,20.9487 -10.53035,37.3436 -17.30122,43.2515 -4.77004,4.1622 -8.14104,4.3733 -13.70063,0.8581 z"
     id="path5251"
     inkscape:connector-curvature="0"
     sodipodi:nodetypes="csscsscsccsssssccssssssssssssssssssssssssssssssscscssccsssssccsssscssssscsssssssscsscssccssc" />
</svg>
