<?xml version="1.0" encoding="UTF-8" standalone="no"?>
<!-- Created with Inkscape (http://www.inkscape.org/) -->

<svg
   xmlns:dc="http://purl.org/dc/elements/1.1/"
   xmlns:cc="http://creativecommons.org/ns#"
   xmlns:rdf="http://www.w3.org/1999/02/22-rdf-syntax-ns#"
   xmlns:svg="http://www.w3.org/2000/svg"
   xmlns="http://www.w3.org/2000/svg"
   xmlns:sodipodi="http://sodipodi.sourceforge.net/DTD/sodipodi-0.dtd"
   xmlns:inkscape="http://www.inkscape.org/namespaces/inkscape"
   version="1.1"
   width="1341.174"
   height="556.59802"
   viewBox="0 0 1341.174 556.598"
   id="Layer_1"
   xml:space="preserve"
   inkscape:version="0.91 r13725"
   sodipodi:docname="Shark_silhouette.svg"><sodipodi:namedview
     pagecolor="#ffffff"
     bordercolor="#666666"
     borderopacity="1"
     objecttolerance="10"
     gridtolerance="10"
     guidetolerance="10"
     inkscape:pageopacity="0"
     inkscape:pageshadow="2"
     inkscape:window-width="1366"
     inkscape:window-height="705"
     id="namedview4141"
     showgrid="false"
     inkscape:zoom="0.68000128"
     inkscape:cx="670.58698"
     inkscape:cy="278.29901"
     inkscape:window-x="-8"
     inkscape:window-y="-8"
     inkscape:window-maximized="1"
     inkscape:current-layer="Layer_1" /><metadata
     id="metadata10"><rdf:RDF><cc:Work
         rdf:about=""><dc:format>image/svg+xml</dc:format><dc:type
           rdf:resource="http://purl.org/dc/dcmitype/StillImage" /><dc:title></dc:title></cc:Work></rdf:RDF></metadata><defs
     id="defs8" /><rect
     style="color:#000000;clip-rule:nonzero;display:inline;overflow:visible;visibility:visible;opacity:1;isolation:auto;mix-blend-mode:normal;color-interpolation:sRGB;color-interpolation-filters:linearRGB;solid-color:#000000;solid-opacity:1;fill:#000000;fill-opacity:1;fill-rule:nonzero;stroke:none;stroke-width:0.99999994;stroke-linecap:butt;stroke-linejoin:miter;stroke-miterlimit:4;stroke-dasharray:0.99999994, 7.99999952;stroke-dashoffset:0;stroke-opacity:1;color-rendering:auto;image-rendering:auto;shape-rendering:auto;text-rendering:auto;enable-background:accumulate"
     id="rect4145"
     width="1339.7034"
     height="554.41071"
     x="1.4705855"
     y="2.1872997" /><path
     d="m 1310.891,36.214 c 1.113,4.369 -1.531,8.598 -2.853,12.488 -4.028,11.846 -8.016,22.61 -13.56,33.539 -3.36,6.622 -6.388,15.394 -8.206,23.19 -2.022,8.684 -3.318,16.751 -8.205,23.19 -1.501,1.979 -5.747,3.337 -7.134,5.709 -1.568,2.673 -1.631,6.73 -2.855,9.633 -3.357,7.958 -8.598,15.929 -13.201,23.546 -3.103,5.137 -6.124,10.179 -9.276,15.341 -5.979,9.794 -13.331,18.964 -19.622,29.258 -6.127,10.023 -13.123,19.266 -19.981,29.258 -3.331,4.853 -6.699,9.977 -10.348,13.914 -7.748,8.363 -13.425,18.857 -20.694,28.542 -6.964,9.279 -13.973,18.779 -20.693,28.187 -3.347,4.684 -6.707,9.532 -9.989,14.626 -3.862,5.998 -8.314,12.161 -12.488,18.197 -2.377,3.438 -4.481,6.843 -6.777,11.417 -2.791,5.55 -6.327,11.714 -7.137,17.126 -2.429,16.197 2.624,32.433 4.996,47.452 0.796,5.034 2.538,9.489 3.565,14.272 3.207,14.892 3.844,30.353 5.709,45.668 0.938,7.706 1.6,15.403 2.499,23.192 0.848,7.371 2.577,14.983 1.784,22.479 -4.895,1.001 -8.754,-2.934 -12.13,-5.709 -23.367,-19.211 -37.338,-47.936 -52.807,-75.639 -2.221,-3.981 -4.46,-7.799 -6.421,-12.129 -5.732,-12.647 -11.55,-24.931 -18.197,-36.751 -4.424,-7.864 -9.753,-13.994 -14.985,-21.762 -4.424,-6.57 -10.546,-16.955 -18.553,-17.839 -3.16,-0.351 -8.144,0.876 -12.489,1.428 -8.01,1.017 -16.652,1.142 -26.046,1.784 -4.338,0.297 -8.909,-0.242 -12.842,0.713 -5.742,1.396 -8.715,5.503 -13.56,8.564 -2.097,1.323 -13.423,5.139 -14.271,7.848 -0.921,2.941 7.267,8.481 9.276,10.349 3.392,3.149 9.493,7.159 9.274,10.704 -0.273,4.463 -9.035,7.514 -14.629,7.493 -17.438,-0.065 -32.47,-10.132 -43.525,-17.484 -4.03,-2.679 -7.526,-6.104 -11.772,-8.562 -12.946,-7.495 -31.849,-8.437 -49.239,-7.137 -18.077,1.353 -36.105,2.297 -53.517,2.497 0.312,6.497 -1.054,11.847 -3.568,17.126 -1.353,2.837 -3.509,4.993 -3.925,7.136 -0.899,4.619 1.329,9.836 -1.428,12.13 -2.102,1.753 -9.354,0.283 -13.916,-0.71 -9.867,-2.159 -16.166,-4.869 -26.046,-7.495 -4.403,-1.168 -9.342,-3.446 -13.201,-3.21 -4.172,0.255 -7.228,3.563 -11.061,4.638 -10.518,2.951 -19.628,-4.391 -28.543,-6.422 -4.892,-1.115 -13.237,1.288 -19.622,2.141 -6.072,0.809 -12.247,1.657 -17.841,2.138 -25.447,2.2 -49.355,3.004 -72.07,7.852 -5.612,1.196 -11.685,1.145 -17.838,1.428 -6.374,0.292 -12.723,0.489 -18.909,1.069 -23.898,2.247 -48.454,4.538 -74.211,5.708 -25.156,1.142 -50.885,1.21 -76.71,1.071 -12.473,-0.067 -25.094,-1.079 -37.819,-0.712 -6.055,0.172 -12.468,-0.937 -18.553,-1.428 -30.759,-2.489 -58.997,-7.186 -88.84,-11.061 -11.295,-1.467 -22.795,-3.704 -33.895,-6.065 -10.855,-2.312 -21.908,-4.358 -33.18,-6.779 -10.904,-2.341 -21.131,-4.947 -32.11,-7.85 -10.354,-2.735 -23.156,-7.599 -26.759,-13.201 -1.311,-2.036 -1.394,-3.071 -1.428,-7.492 -17.893,-2.993 -30.079,-12 -47.096,-16.413 -10.525,-2.73 -19.05,-5.917 -26.046,-13.56 -2.094,-2.283 -5.729,-5.415 -5.353,-7.85 0.308,-1.979 8.075,-5.19 11.773,-7.136 4.239,-2.229 8.892,-4.257 12.133,-6.421 3.445,-2.307 6.143,-5.933 9.276,-7.852 4.618,-2.827 10.34,-4.843 15.697,-7.492 5.228,-2.586 10.458,-5.501 15.698,-7.493 10.975,-4.171 22.08,-8.372 32.467,-13.914 10.302,-5.498 20.982,-9.667 30.683,-15.698 9.883,-6.143 20.826,-10.023 31.752,-14.629 22.105,-9.313 44.37,-18.052 67.077,-25.687 11.479,-3.859 23.076,-8.424 34.964,-11.417 6.072,-1.529 12.119,-3.09 18.196,-4.996 11.398,-3.573 22.978,-5.675 34.607,-8.562 10.504,-2.606 21.294,-5.079 32.11,-7.849 5.326,-1.363 10.978,-1.964 15.698,-3.568 13.781,-4.679 19.25,-21.63 26.046,-34.963 1.523,-2.988 3.321,-5.719 4.993,-8.562 1.734,-2.952 2.843,-5.93 4.28,-9.277 4.2,-9.766 9.459,-19.157 14.985,-28.186 2.744,-4.484 6.18,-8.104 8.562,-12.845 1.256,-2.5 2.45,-4.713 3.925,-6.777 1.477,-2.07 3.526,-3.54 4.993,-5.709 1.271,-1.877 2.044,-3.986 3.212,-5.708 3.368,-4.968 7.591,-9.732 12.132,-14.271 10.164,-10.163 20.704,-23.528 36.392,-27.471 8.189,-2.06 11.646,2.59 13.916,8.205 2.062,5.108 3.399,8.92 4.281,16.413 1.251,10.629 1.841,24.769 2.14,35.322 0.097,3.339 -1.495,6.957 -1.783,9.989 -0.339,3.54 0.169,7.303 -0.356,11.061 -0.614,4.372 -0.479,8.254 -0.713,12.132 -0.15,2.471 -0.996,4.78 -1.071,7.136 -0.705,22.109 12.938,36.958 26.402,46.74 2.668,1.94 6.39,4.296 9.989,6.067 3.906,1.919 7.422,5.264 10.704,6.065 6.002,1.464 12.848,1.639 19.266,2.497 6.56,0.876 12.904,1.639 19.266,2.14 13.188,1.041 26.08,3.948 38.532,6.068 24.41,4.153 48.888,8.764 74.926,13.914 6.031,1.194 11.986,3.103 18.194,4.281 18.426,3.503 36.942,7.277 55.657,11.061 11.956,2.416 24.621,5.719 37.463,7.136 6.775,0.747 13.622,0.923 20.335,1.784 8.177,1.048 17.381,5.347 26.761,3.212 8.164,-1.859 15.16,-8.973 24.618,-11.773 3.972,-1.178 9.95,-2 13.558,0 3.8,2.106 3.917,8.249 5.353,12.486 2.473,7.303 9.3,14.733 12.845,23.549 1.126,2.804 1.872,7.017 3.209,8.562 1.732,2.002 5.75,3.152 9.274,4.28 3.703,1.186 6.868,2.869 9.633,3.568 12.959,3.271 29.718,4.359 45.671,6.067 6.741,0.721 13.588,3.781 19.98,1.428 2.045,-0.754 3.332,-1.93 5.353,-3.567 1.639,-1.327 3.648,-2.367 5.353,-3.568 10.002,-7.048 22.54,-15.032 31.754,-21.763 3.487,-2.546 7.417,-4.317 11.061,-6.78 3.482,-2.351 6.791,-5.386 9.992,-7.849 3.287,-2.533 6.821,-5.012 10.349,-7.493 3.453,-2.434 6.363,-5.7 9.633,-7.849 3.714,-2.442 7.711,-4.486 11.417,-6.78 3.63,-2.247 6.845,-5.022 10.348,-7.493 3.595,-2.533 7.454,-4.507 11.061,-6.777 3.634,-2.289 6.658,-4.923 9.989,-7.849 6.43,-5.644 13.909,-9.799 20.338,-15.341 6.426,-5.537 13.983,-9.636 19.266,-16.413 27.866,-22.166 50.93,-47.842 75.282,-73.498 2.486,-2.621 3.898,-5.846 6.064,-8.92 2.026,-2.876 4.822,-5.204 6.777,-7.849 2.148,-2.9 3.52,-6.252 5.706,-9.276 5.063,-6.986 9.3,-15.326 14.272,-22.834 2.439,-3.675 4.519,-7.428 7.151,-11.789 l 0,0 z"
     id="path2971"
     style="fill:#b3b3b3" /><path
     d="m 80.349,329.613 c -3.119,-0.331 -8.028,5.635 -3.437,8.055 3.913,2.064 5.18,-0.044 6.182,-0.908 2.308,-1.992 -0.571,-6.914 -2.745,-7.147 z"
     id="path4"
     style="fill:none;stroke:#ffffff;stroke-width:2.83459997;stroke-miterlimit:10" /></svg>